<svg width="430" height="430" viewBox="0 0 430 430" fill="none" xmlns="http://www.w3.org/2000/svg">
<path d="M72.75 340.74L82.5 321.61C92.18 302.61 99.81 287.61 103.38 280.61L116 255.9C122.14 243.85 127.18 233.97 127.25 233.84L127.41 233.54L136.55 215.6C141.55 205.73 145.65 197.72 145.66 197.71L145.81 197.42C145.88 197.26 149.89 189.42 154.74 179.87C159.6 170.34 163.6 162.48 163.68 162.32L163.83 162.04L172.93 144.18L182.03 126.31L182.21 125.96L193.51 103.79L218.43 54.8899V54.6099L338.69 305.16L357.25 343.88C312.89 365.188 264.209 375.965 215 375.37C165.553 374.902 116.879 363.053 72.75 340.74Z" fill="#FFC738"/>
<g style="mix-blend-mode:multiply" opacity="0.5">
<path d="M217.17 57.3499L193.5 103.79L182.2 126L182.02 126.35L172.92 144.22L163.82 162L163.67 162.28C163.59 162.44 159.59 170.28 154.73 179.83C149.87 189.38 145.87 197.22 145.8 197.38L145.65 197.67C145.65 197.67 141.56 205.67 136.54 215.56L127.4 233.5L127.24 233.8C127.17 233.93 122.13 243.8 115.99 255.86L103.38 280.61C99.81 287.61 92.18 302.61 82.5 321.61L72.75 340.74C116.879 363.053 165.553 374.902 215 375.37H217.21L217.17 57.3499Z" fill="#FFC738"/>
</g>
<path d="M72.75 340.74C116.879 363.053 165.553 374.902 215 375.37C264.222 375.971 312.918 365.194 357.29 343.88L338.73 305.16C300.298 323.64 258.111 332.977 215.47 332.44C172.692 331.939 130.604 321.591 92.47 302.2L72.75 340.74Z" fill="#F24C00"/>
<path d="M249.65 274.22C245.977 272.351 242.941 269.435 240.926 265.841C238.91 262.247 238.006 258.135 238.328 254.027C238.65 249.919 240.183 245.999 242.734 242.762C245.284 239.525 248.737 237.118 252.656 235.844C256.575 234.571 260.784 234.488 264.75 235.607C268.716 236.725 272.261 238.995 274.937 242.129C277.612 245.263 279.298 249.121 279.781 253.213C280.264 257.305 279.522 261.449 277.65 265.12C276.41 267.557 274.701 269.725 272.623 271.501C270.544 273.278 268.136 274.627 265.535 275.472C262.935 276.317 260.194 276.642 257.468 276.427C254.742 276.212 252.086 275.462 249.65 274.22Z" fill="#F24C00"/>
<g style="mix-blend-mode:multiply" opacity="0.5">
<path d="M217.17 332.45H215.43C172.652 331.949 130.564 321.601 92.43 302.21L72.75 340.74C116.879 363.053 165.553 374.902 215 375.37H217.21L217.17 332.45Z" fill="#F24C00"/>
</g>
<path d="M164.89 277.61C161.217 275.741 158.181 272.826 156.166 269.231C154.151 265.637 153.247 261.526 153.569 257.417C153.89 253.309 155.424 249.389 157.974 246.152C160.524 242.915 163.978 240.508 167.897 239.234C171.816 237.961 176.024 237.878 179.99 238.997C183.956 240.116 187.501 242.386 190.177 245.52C192.853 248.654 194.538 252.511 195.021 256.603C195.504 260.696 194.763 264.839 192.89 268.51C190.381 273.428 186.023 277.148 180.773 278.854C175.523 280.561 169.81 280.113 164.89 277.61Z" fill="#F24C00"/>
<path d="M207.71 193.56C204.037 191.691 201.001 188.776 198.986 185.181C196.971 181.587 196.067 177.475 196.389 173.367C196.711 169.259 198.244 165.339 200.794 162.102C203.345 158.865 206.798 156.458 210.717 155.184C214.636 153.911 218.845 153.828 222.811 154.947C226.777 156.066 230.322 158.336 232.997 161.47C235.673 164.604 237.359 168.461 237.842 172.553C238.325 176.646 237.583 180.789 235.71 184.46C233.202 189.377 228.844 193.098 223.593 194.804C218.343 196.511 212.631 196.063 207.71 193.56Z" fill="#F24C00"/>
<path d="M249.65 274.22C245.977 272.351 242.941 269.435 240.926 265.841C238.91 262.247 238.006 258.135 238.328 254.027C238.65 249.919 240.183 245.999 242.734 242.762C245.284 239.525 248.737 237.118 252.656 235.844C256.575 234.571 260.784 234.488 264.75 235.607C268.716 236.725 272.261 238.995 274.937 242.129C277.612 245.263 279.298 249.121 279.781 253.213C280.264 257.305 279.522 261.449 277.65 265.12C276.41 267.557 274.701 269.725 272.623 271.501C270.544 273.278 268.136 274.627 265.535 275.472C262.935 276.317 260.194 276.642 257.468 276.427C254.742 276.212 252.086 275.462 249.65 274.22Z" stroke="#121331" stroke-width="7" stroke-linecap="round" stroke-linejoin="round"/>
<path d="M164.89 277.61C161.217 275.741 158.181 272.826 156.166 269.231C154.151 265.637 153.247 261.526 153.569 257.417C153.89 253.309 155.424 249.389 157.974 246.152C160.524 242.915 163.978 240.508 167.897 239.234C171.816 237.961 176.024 237.878 179.99 238.997C183.956 240.116 187.501 242.386 190.177 245.52C192.853 248.654 194.538 252.511 195.021 256.603C195.504 260.696 194.763 264.839 192.89 268.51C190.381 273.428 186.023 277.148 180.773 278.854C175.523 280.561 169.81 280.113 164.89 277.61V277.61Z" stroke="#121331" stroke-width="7" stroke-linecap="round" stroke-linejoin="round"/>
<path d="M207.71 193.56C204.037 191.691 201.001 188.776 198.986 185.181C196.971 181.587 196.067 177.475 196.389 173.367C196.711 169.259 198.244 165.339 200.794 162.102C203.345 158.865 206.798 156.458 210.717 155.184C214.636 153.911 218.845 153.828 222.811 154.947C226.777 156.066 230.322 158.336 232.997 161.47C235.673 164.604 237.359 168.461 237.842 172.553C238.325 176.646 237.583 180.789 235.71 184.46C233.202 189.377 228.844 193.098 223.593 194.804C218.343 196.511 212.631 196.063 207.71 193.56Z" stroke="#121331" stroke-width="7" stroke-linecap="round" stroke-linejoin="round"/>
<path d="M72.75 340.74L82.5 321.61C92.18 302.61 99.81 287.61 103.38 280.61L116 255.9C122.14 243.85 127.18 233.97 127.25 233.84L127.41 233.54L136.55 215.6C141.55 205.73 145.65 197.72 145.66 197.71L145.81 197.42C145.88 197.26 149.89 189.42 154.74 179.87C159.6 170.34 163.6 162.48 163.68 162.32L163.83 162.04L172.93 144.18L182.03 126.31L182.21 125.96L193.51 103.79L218.43 54.8899V54.6099L338.69 305.16L357.25 343.88C312.89 365.188 264.209 375.965 215 375.37C165.553 374.902 116.879 363.053 72.75 340.74" stroke="#121331" stroke-width="7" stroke-linecap="round" stroke-linejoin="round"/>
<path d="M72.75 340.74C116.879 363.053 165.553 374.902 215 375.37C264.222 375.971 312.918 365.194 357.29 343.88L338.73 305.16C300.298 323.64 258.111 332.977 215.47 332.44C172.692 331.939 130.604 321.591 92.47 302.2L72.75 340.74Z" stroke="#121331" stroke-width="7" stroke-linecap="round" stroke-linejoin="round"/>
</svg>
